<?xml version="1.0" standalone="no"?>
<!DOCTYPE svg PUBLIC "-//W3C//DTD SVG 20010904//EN"
 "http://www.w3.org/TR/2001/REC-SVG-20010904/DTD/svg10.dtd">
<svg version="1.0" xmlns="http://www.w3.org/2000/svg"
 width="200.000000pt" height="200.000000pt" viewBox="0 0 200.000000 200.000000"
 preserveAspectRatio="xMidYMid meet">

<g transform="translate(0.000000,200.000000) scale(0.100000,-0.100000)"
fill="#000000" stroke="none">
<path d="M850 1487 c-181 -62 -304 -195 -346 -373 -83 -354 242 -687 598 -613
182 38 346 194 393 374 19 74 19 183 0 254 -46 176 -190 320 -366 366 -82 22
-202 19 -279 -8z m241 -37 c82 -15 167 -62 232 -127 183 -183 180 -472 -7
-651 -182 -174 -450 -174 -632 0 -186 178 -189 469 -7 651 114 114 254 157
414 127z"/>
<path d="M760 1223 c0 -10 46 -64 102 -120 l103 -103 -103 -103 c-56 -56 -102
-110 -102 -120 0 -37 39 -13 137 85 l103 103 103 -103 c98 -98 137 -122 137
-85 0 10 -46 64 -102 120 l-103 103 104 104 c73 73 102 109 98 120 -4 9 -12
16 -19 16 -7 0 -59 -46 -115 -102 l-103 -103 -103 103 c-98 98 -137 122 -137
85z"/>
</g>
</svg>
